<?xml version="1.0" standalone="no"?>
<!DOCTYPE svg PUBLIC "-//W3C//DTD SVG 20010904//EN"
 "http://www.w3.org/TR/2001/REC-SVG-20010904/DTD/svg10.dtd">
<svg version="1.0" xmlns="http://www.w3.org/2000/svg"
 width="1024.000000pt" height="1024.000000pt" viewBox="0 0 1024.000000 1024.000000"
 preserveAspectRatio="xMidYMid meet">
<metadata>
Created by potrace 1.16, written by Peter Selinger 2001-2019
</metadata>
<g transform="translate(0.000000,1024.000000) scale(0.100000,-0.100000)"
fill="#000000" stroke="none">
<path d="M0 5120 l0 -5120 5120 0 5120 0 0 5120 0 5120 -5120 0 -5120 0 0
-5120z m2510 4946 c30 -9 93 -21 139 -26 46 -6 109 -22 140 -35 31 -13 74 -26
96 -30 22 -4 58 -18 80 -30 22 -13 58 -28 80 -35 22 -7 56 -24 75 -36 19 -13
40 -24 47 -24 6 0 24 -11 40 -24 16 -14 48 -32 70 -41 23 -9 44 -23 47 -30 3
-8 20 -22 38 -31 31 -16 126 -93 219 -177 61 -55 172 -184 191 -222 9 -17 25
-39 37 -49 12 -11 21 -25 21 -31 0 -7 13 -29 29 -49 16 -20 32 -50 36 -65 3
-16 15 -37 25 -46 11 -10 27 -40 36 -68 9 -27 27 -65 39 -84 13 -18 26 -52 30
-76 4 -23 18 -60 30 -82 13 -22 29 -68 35 -102 6 -34 21 -86 34 -115 13 -29
27 -81 30 -115 4 -34 18 -93 31 -130 14 -40 28 -113 34 -178 5 -61 19 -148 31
-195 11 -47 25 -152 31 -235 6 -82 21 -202 34 -266 13 -63 27 -155 30 -205 4
-49 18 -120 31 -159 13 -38 28 -99 33 -135 6 -35 19 -76 30 -91 11 -14 24 -45
30 -67 7 -23 22 -54 35 -69 13 -15 31 -41 40 -58 41 -72 77 -118 187 -232 32
-34 59 -66 59 -71 0 -5 7 -15 15 -22 8 -7 15 -18 15 -25 0 -17 -76 -38 -97
-26 -10 5 -66 58 -124 118 -161 164 -169 173 -169 189 0 8 -11 19 -25 24 -14
5 -26 14 -26 20 -2 13 -3 19 -13 55 -4 17 -16 39 -26 50 -9 11 -23 38 -30 60
-7 22 -23 60 -36 85 -13 25 -29 72 -35 103 -5 32 -17 77 -25 100 -9 23 -24 85
-34 137 -11 52 -24 115 -30 140 -6 25 -15 74 -21 110 -35 218 -61 389 -75 485
-8 61 -20 128 -26 150 -6 22 -21 87 -33 145 -72 335 -151 562 -276 789 -146
263 -322 451 -592 630 -212 142 -504 257 -717 285 -349 45 -581 21 -876 -89
-106 -40 -315 -145 -356 -180 -15 -13 -38 -27 -50 -31 -12 -4 -31 -17 -41 -30
-21 -27 -47 -32 -47 -8 0 9 14 21 30 27 17 7 33 21 36 33 4 14 21 28 50 39 24
9 44 21 44 26 0 4 15 16 33 25 17 9 44 29 59 45 15 16 36 29 48 29 27 0 61 18
77 40 7 10 29 21 50 25 21 3 54 17 73 30 19 13 58 29 85 35 28 6 73 22 100 35
28 13 77 27 110 31 33 3 103 17 155 30 87 22 111 23 280 20 131 -3 201 -8 240
-20z m5815 -38 c39 -5 82 -16 97 -24 15 -8 58 -21 96 -29 38 -8 91 -26 117
-40 26 -14 58 -25 70 -25 12 0 40 -12 61 -26 21 -15 55 -31 74 -37 19 -5 50
-22 68 -38 18 -16 39 -29 46 -29 14 0 60 -32 132 -92 25 -21 51 -38 58 -38 7
0 71 -57 143 -127 123 -122 192 -202 239 -280 12 -20 27 -38 32 -42 6 -3 19
-27 30 -51 11 -25 27 -51 36 -59 9 -7 21 -32 27 -54 6 -22 21 -54 34 -71 13
-17 27 -49 30 -71 4 -22 20 -67 35 -100 16 -34 31 -87 35 -122 3 -35 15 -89
26 -120 49 -141 52 -588 4 -722 -8 -23 -21 -83 -29 -132 -8 -49 -23 -104 -34
-122 -11 -17 -25 -56 -31 -86 -6 -29 -20 -65 -31 -78 -11 -14 -25 -44 -31 -67
-6 -22 -19 -50 -30 -61 -10 -12 -24 -36 -30 -55 -7 -19 -24 -49 -38 -66 -14
-17 -34 -44 -44 -60 -31 -52 -67 -98 -140 -178 -74 -81 -257 -245 -299 -267
-13 -6 -37 -24 -54 -38 -18 -14 -55 -39 -84 -56 -28 -16 -66 -40 -83 -52 -18
-13 -48 -30 -67 -38 -19 -9 -42 -20 -50 -25 -8 -6 -35 -20 -60 -31 -25 -11
-72 -33 -104 -50 -32 -16 -68 -29 -79 -29 -11 0 -40 -11 -63 -25 -24 -14 -69
-30 -101 -36 -32 -6 -75 -20 -97 -31 -21 -11 -78 -26 -125 -33 -47 -7 -115
-23 -150 -35 -100 -33 -427 -46 -781 -31 -151 6 -311 18 -355 26 -258 47 -401
46 -542 -3 -50 -18 -116 -48 -145 -68 -64 -43 -175 -158 -193 -200 -8 -17 -21
-37 -31 -45 -9 -7 -27 -31 -40 -51 -14 -21 -31 -38 -38 -38 -14 0 -18 -8 -30
-62 -8 -35 -29 -36 -50 -4 -20 31 -12 52 25 65 25 8 29 15 29 46 0 62 -13 75
-75 75 -42 0 -60 -5 -76 -21 -20 -20 -20 -22 -3 -40 9 -10 15 -21 12 -24 -7
-7 -216 100 -242 124 -12 10 -37 24 -58 30 -20 7 -39 19 -42 27 -14 35 -6 42
54 46 60 4 62 5 119 67 l59 63 84 -7 c66 -6 92 -4 122 9 21 9 50 16 65 16 14
0 51 9 81 21 207 79 339 109 482 109 115 0 556 -34 721 -56 153 -20 575 -15
707 9 47 8 122 20 168 26 45 7 102 19 125 27 23 8 73 22 111 31 37 8 93 26
122 39 30 13 60 24 66 24 22 0 269 115 358 167 244 143 438 311 564 488 73
101 169 322 180 412 1 16 15 53 29 84 15 30 29 80 31 110 3 30 14 79 25 110
33 91 54 258 54 429 0 152 -24 391 -42 414 -4 6 -16 45 -26 86 -20 84 -77 210
-157 345 -274 465 -826 815 -1379 876 -184 20 -455 -7 -639 -65 -44 -14 -86
-26 -92 -26 -20 0 -270 -116 -333 -155 -126 -78 -242 -161 -268 -192 -10 -13
-24 -23 -31 -23 -7 0 -22 -13 -34 -30 -13 -16 -28 -30 -35 -30 -7 0 -18 -13
-25 -30 -8 -16 -20 -30 -28 -30 -22 0 -17 21 11 50 140 140 195 195 225 221
19 16 50 43 68 60 18 16 39 29 46 29 8 0 33 16 56 35 23 19 48 35 55 35 7 0
26 11 42 24 15 13 46 29 68 36 22 7 56 23 75 36 19 12 55 28 80 34 25 7 59 20
76 31 17 10 62 25 100 33 38 8 95 24 128 36 103 37 534 48 731 18z m-7323
-470 c-6 -6 -15 -8 -19 -4 -4 4 -1 11 7 16 19 12 27 3 12 -12z m1468 -68 c354
-106 699 -388 904 -738 123 -210 210 -497 221 -732 l7 -125 -21 25 c-25 31
-38 81 -51 189 -6 51 -17 96 -30 116 -11 18 -25 59 -31 91 -6 32 -21 77 -34
99 -12 22 -28 57 -35 79 -7 21 -23 54 -36 74 -13 19 -24 40 -24 46 0 6 -16 33
-35 60 -19 27 -35 55 -35 61 0 7 -10 20 -21 31 -12 10 -32 35 -44 54 -31 47
-201 219 -249 250 -21 14 -52 37 -69 51 -18 15 -51 36 -74 48 -23 11 -44 25
-47 30 -4 5 -30 17 -59 27 -28 9 -61 23 -73 31 -12 7 -83 29 -159 48 -119 30
-155 35 -256 35 -88 0 -133 -5 -180 -20 -35 -10 -89 -24 -119 -31 -30 -6 -78
-24 -106 -40 -28 -16 -58 -29 -65 -29 -8 0 -45 -23 -84 -50 -38 -27 -86 -60
-105 -74 -19 -13 -51 -40 -70 -60 -19 -20 -57 -57 -84 -83 -26 -27 -56 -64
-66 -84 -10 -19 -26 -41 -34 -48 -9 -8 -25 -34 -36 -59 -12 -26 -27 -53 -34
-62 -8 -8 -21 -40 -29 -70 -9 -30 -25 -80 -36 -110 -42 -117 -37 -500 8 -600
11 -25 25 -68 31 -95 6 -28 19 -61 29 -75 10 -14 23 -42 30 -63 7 -21 23 -50
35 -65 13 -15 31 -42 40 -59 9 -18 20 -33 24 -33 4 0 16 -15 27 -32 10 -18 46
-62 79 -97 95 -100 342 -286 406 -306 14 -4 37 -18 52 -31 15 -12 42 -25 60
-29 18 -4 52 -18 75 -31 23 -13 65 -29 95 -35 29 -6 71 -21 93 -32 111 -56
631 -62 735 -8 19 10 61 26 92 35 31 9 60 21 64 27 4 6 31 22 60 35 30 13 54
28 54 34 0 5 18 19 39 30 22 11 42 28 45 38 4 11 17 24 30 30 14 6 30 23 38
39 15 32 48 44 48 18 0 -43 -116 -195 -200 -263 -117 -94 -319 -183 -515 -225
-135 -29 -414 -31 -553 -4 -200 39 -514 172 -683 289 -159 110 -329 264 -385
348 -17 25 -54 79 -82 121 -59 87 -134 250 -162 354 -52 189 -72 450 -46 615
24 162 77 309 150 416 20 30 25 32 36 20 19 -24 88 17 210 126 198 176 333
267 533 363 159 75 245 110 340 136 103 28 228 21 367 -21z m5760 -11 c189
-30 442 -190 622 -392 142 -161 231 -314 275 -477 28 -104 23 -536 -6 -504 -5
5 -13 79 -18 164 -9 127 -15 166 -35 215 -14 33 -29 78 -32 100 -4 22 -18 56
-30 75 -13 19 -28 52 -35 72 -7 20 -19 42 -27 49 -9 7 -22 25 -30 41 -14 28
-113 146 -150 180 -51 47 -102 86 -124 98 -14 7 -36 22 -50 32 -63 48 -119 79
-169 94 -29 9 -68 25 -85 35 -21 12 -79 24 -170 36 -132 16 -148 16 -293 0
-126 -15 -163 -23 -215 -47 -35 -17 -68 -30 -75 -30 -11 0 -119 -56 -202 -105
-18 -11 -53 -36 -76 -55 -62 -52 -109 -90 -120 -98 -34 -24 -194 -222 -220
-271 -9 -19 -25 -43 -36 -54 -10 -11 -21 -32 -24 -47 -3 -15 -17 -42 -30 -60
-13 -18 -27 -47 -30 -64 -4 -17 -18 -50 -31 -73 -13 -23 -29 -65 -35 -95 -6
-29 -22 -78 -34 -108 -13 -30 -26 -84 -30 -120 -3 -36 -15 -112 -26 -170 -26
-139 -27 -263 -1 -365 11 -44 23 -99 27 -122 4 -23 14 -48 22 -55 9 -7 24 -33
35 -57 25 -60 84 -129 196 -231 34 -32 147 -100 164 -100 7 0 40 -13 73 -29
75 -36 257 -66 405 -66 140 0 341 29 410 60 30 13 73 27 95 30 22 4 56 18 75
30 19 13 53 28 76 34 22 6 49 20 59 31 9 10 34 25 54 31 20 7 49 22 64 35 16
13 32 24 35 24 4 0 34 21 67 46 33 25 83 62 110 83 82 63 220 216 260 289 22
40 55 55 55 25 0 -10 -8 -32 -18 -50 -9 -17 -28 -50 -40 -74 -40 -71 -167
-223 -249 -298 -341 -308 -880 -531 -1288 -531 -74 0 -221 24 -267 44 -18 8
-58 22 -88 31 -165 50 -380 201 -496 350 -52 67 -68 96 -93 175 -31 99 -51
252 -51 390 0 93 36 413 48 437 5 10 17 63 26 119 8 55 29 139 46 185 17 46
37 103 45 126 7 23 21 52 29 65 9 13 24 49 35 80 10 30 30 73 42 94 13 21 32
56 43 76 10 20 30 47 43 60 23 21 25 22 37 6 12 -16 15 -16 52 3 21 12 50 31
64 43 125 112 364 272 541 361 194 97 380 157 619 198 48 8 115 7 180 -4z
m-1710 -180 c-12 -22 -30 -25 -30 -6 0 17 21 38 32 31 4 -3 3 -14 -2 -25z
m-6082 -1419 c12 -79 1 -116 -18 -66 -12 33 -14 164 -1 151 5 -6 13 -44 19
-85z m8628 -36 c-4 -9 -9 -15 -11 -12 -3 3 -3 13 1 22 4 9 9 15 11 12 3 -3 3
-13 -1 -22z m-8560 -171 c38 -125 136 -322 233 -467 77 -116 239 -289 355
-380 375 -293 887 -497 1411 -561 174 -22 487 -23 680 -2 612 66 803 59 993
-37 82 -41 170 -111 183 -143 5 -13 15 -26 24 -29 14 -6 125 45 155 71 8 8 37
19 64 26 30 7 58 23 74 41 14 15 32 28 41 28 36 -1 91 -73 91 -120 0 -12 -7
-35 -16 -53 -11 -20 -16 -54 -16 -95 1 -37 -5 -76 -13 -91 -7 -15 -57 -68
-109 -117 -106 -100 -112 -114 -81 -199 28 -78 11 -105 -24 -37 -11 20 -42 62
-69 92 -38 43 -50 65 -55 100 -4 30 -14 52 -30 65 -33 29 -94 116 -102 147 -7
27 -135 164 -193 207 -18 13 -52 29 -76 36 -24 8 -58 21 -76 30 -71 37 -368
37 -535 1 -123 -27 -282 -37 -600 -37 -321 -1 -436 8 -540 41 -33 10 -87 21
-120 25 -33 4 -87 17 -120 30 -33 14 -85 29 -115 36 -30 6 -70 19 -88 30 -18
10 -58 26 -90 35 -31 9 -64 23 -74 31 -9 8 -38 21 -64 29 -27 8 -64 25 -84 38
-19 13 -46 27 -60 31 -14 4 -37 17 -51 29 -15 11 -49 33 -75 48 -71 40 -81 47
-162 108 -41 30 -86 63 -100 72 -95 62 -294 278 -375 407 -12 19 -39 62 -61
95 -21 34 -44 78 -52 98 -7 21 -22 50 -33 65 -10 15 -24 52 -30 81 -6 29 -21
66 -33 82 -16 23 -22 48 -26 111 -6 104 13 105 44 2z m8514 40 c0 -23 -22 -83
-30 -83 -11 0 -13 50 -4 74 6 16 34 23 34 9z m-3033 -80 c-3 -10 -5 -4 -5 12
0 17 2 24 5 18 2 -7 2 -21 0 -30z m-2490 -345 c-3 -7 -5 -2 -5 12 0 14 2 19 5
13 2 -7 2 -19 0 -25z m2433 -80 c0 -38 -3 -49 -11 -41 -10 10 -4 93 7 93 2 0
4 -23 4 -52z m-660 -1293 c12 -11 38 -25 59 -30 26 -8 37 -17 39 -33 5 -33
-30 -28 -74 10 -35 31 -40 33 -138 36 -113 3 -146 8 -146 22 0 13 45 18 147
16 75 -2 96 -5 113 -21z m151 -116 c16 -31 -7 -52 -27 -25 -8 11 -14 26 -14
33 0 21 28 15 41 -8z m-635 -271 c23 -45 91 -119 128 -140 44 -25 72 -22 131
12 42 24 70 32 133 37 51 4 81 2 86 -5 17 -27 162 41 190 89 18 30 20 31 27
13 14 -35 9 -59 -25 -129 -44 -90 -92 -135 -193 -179 -113 -50 -189 -50 -289
-2 -39 18 -89 53 -113 77 -68 71 -132 225 -104 252 10 11 11 9 29 -25z m81
-455 c22 -27 65 -86 96 -133 31 -47 75 -110 97 -140 68 -93 69 -95 29 -134
-19 -18 -50 -57 -69 -86 -19 -29 -52 -73 -72 -99 -21 -25 -48 -59 -61 -76 -13
-16 -31 -44 -40 -60 -8 -17 -24 -39 -36 -49 -12 -11 -21 -23 -21 -29 0 -5 -16
-27 -35 -48 -19 -22 -35 -45 -35 -52 0 -8 -9 -22 -21 -33 -12 -10 -28 -32 -36
-49 -8 -16 -24 -39 -34 -50 -11 -11 -39 -51 -64 -90 -24 -38 -53 -81 -65 -95
-12 -14 -30 -38 -41 -55 -11 -16 -30 -46 -44 -65 -13 -19 -35 -50 -47 -68 -13
-19 -35 -48 -49 -65 -15 -18 -36 -51 -48 -74 -12 -24 -25 -43 -30 -43 -5 0
-16 -15 -24 -33 -9 -18 -27 -43 -41 -56 -14 -14 -26 -29 -26 -35 0 -7 -13 -27
-29 -46 -15 -19 -36 -50 -45 -67 -9 -18 -21 -33 -26 -33 -5 0 -17 -15 -26 -32
-9 -18 -30 -48 -45 -66 -16 -18 -29 -39 -29 -46 0 -7 -9 -21 -21 -32 -12 -10
-28 -32 -36 -49 -9 -16 -22 -34 -29 -38 -8 -4 -24 -27 -35 -50 -12 -23 -28
-49 -36 -57 -16 -18 -56 -74 -80 -114 -10 -15 -33 -46 -50 -68 -18 -22 -33
-45 -33 -51 0 -7 -13 -25 -30 -40 -16 -16 -30 -33 -30 -39 0 -6 -12 -25 -27
-43 -16 -17 -36 -45 -46 -61 -24 -41 -63 -95 -90 -124 -13 -14 -29 -40 -36
-58 -7 -18 -17 -32 -22 -32 -5 0 -17 -17 -28 -38 -10 -20 -31 -48 -45 -61 -14
-14 -26 -30 -26 -36 0 -7 -10 -20 -21 -31 -12 -10 -31 -38 -41 -62 -11 -24
-26 -46 -34 -49 -8 -3 -24 -23 -35 -44 -11 -22 -23 -39 -28 -39 -4 0 -20 -22
-35 -50 -15 -27 -31 -50 -36 -50 -6 0 -16 -15 -24 -33 -7 -17 -25 -43 -40 -56
-14 -14 -26 -30 -26 -37 0 -7 -16 -31 -35 -54 -19 -23 -35 -48 -35 -56 0 -7
-11 -21 -25 -30 -13 -9 -27 -24 -30 -35 -4 -10 -22 -37 -41 -60 -19 -22 -34
-47 -34 -55 0 -7 -11 -21 -25 -30 -14 -9 -28 -27 -31 -40 -4 -14 -16 -32 -29
-42 -12 -10 -30 -32 -39 -49 -9 -18 -27 -43 -41 -57 -14 -14 -25 -34 -25 -45
0 -13 -12 -27 -30 -36 -16 -9 -30 -22 -30 -30 0 -8 -16 -32 -35 -54 -19 -21
-35 -46 -35 -54 0 -9 -13 -26 -29 -38 -16 -12 -32 -32 -35 -45 -8 -29 -44 -51
-52 -31 -7 19 13 66 30 73 8 3 18 19 21 36 4 16 19 44 35 61 15 18 31 43 35
57 4 13 18 33 31 43 16 12 24 29 24 49 0 21 9 38 30 56 50 44 33 100 -21 71
-20 -10 -25 -9 -34 5 -29 49 -27 49 -101 -23 -40 -37 -77 -79 -84 -92 -13 -25
-52 -74 -107 -136 -18 -20 -33 -43 -33 -52 0 -23 -28 -61 -46 -61 -19 0 -18
28 5 70 11 19 47 89 81 155 93 179 158 294 220 390 22 33 51 80 65 105 114
202 690 1067 1055 1585 12 17 107 153 213 303 106 150 212 301 237 336 25 35
99 139 165 230 66 91 140 195 165 230 25 35 108 150 185 257 77 106 147 203
155 215 8 12 39 56 68 98 62 90 86 143 97 211 4 28 9 53 12 58 10 17 32 4 70
-40z m-2820 -4252 c-6 -35 -15 -51 -28 -51 -14 0 -11 33 7 58 21 30 26 28 21
-7z m226 -97 c-5 -15 -15 -30 -21 -32 -15 -5 -16 32 -1 60 16 30 34 8 22 -28z
m6419 -99 c-2 -51 -8 -87 -18 -100 -8 -11 -25 -36 -39 -55 -13 -19 -31 -42
-40 -50 -9 -8 -28 -28 -43 -44 -15 -16 -41 -43 -57 -60 -17 -17 -36 -43 -43
-58 -6 -16 -16 -28 -21 -28 -5 0 -11 -17 -13 -38 -3 -34 -6 -37 -33 -37 -26 0
-31 5 -39 38 -9 34 -7 41 12 55 19 15 22 29 26 125 6 135 17 172 56 186 33 11
139 80 188 123 55 47 68 36 64 -57z m-6482 5 c0 -20 -25 -38 -36 -27 -8 7 15
47 26 47 6 0 10 -9 10 -20z m-340 -209 c-10 -71 -10 -103 -1 -152 14 -67 7
-85 -27 -75 -40 13 -164 196 -160 236 3 22 8 25 43 25 22 0 52 8 67 17 14 9
38 20 52 24 14 3 26 11 26 17 0 6 3 8 6 4 3 -3 0 -46 -6 -96z"/>
<path d="M5243 5383 c-20 -8 -15 -33 6 -33 19 0 35 23 24 34 -7 7 -13 7 -30
-1z"/>
</g>
</svg>
